#!OML:ASF E:\Steps\Project 1\Capture day 1\Session 2\Subject.ASF
:FULLY-SPECIFIED
:DEGREES
1175
root 10.183 16.4476 5.33024 22.3738 -3.55925 1.06801
lowerback -25.2335 -1.14922 -4.15941
upperback -0.986474 -0.224125 -0.667828
thorax 13.073 -0.335749 1.55191
lowerneck -5.74644 3.02776 2.79048
upperneck -5.13556 3.93808 1.64108
head -0.609001 1.91709 0.0903826
rclavicle -1.44119e-015 -2.14687e-014
rhumerus 0.523261 22.1244 -45.5691
rradius 100.294
rwrist -20.4339
rhand -6.85758 -53.2138
rfingers 7.12502
rthumb 19.0078 -82.3051
lclavicle -1.44119e-015 -2.14687e-014
lhumerus 5.28936 -28.7963 36.3972
lradius 92.4364
lwrist 8.83388
lhand -22.5912 -17.2586
lfingers 7.12502
lthumb 3.83787 12.6866
rfemur -21.2942 6.00317 15.7769
rtibia 5.6666
rfoot -14.2627 -3.14388
rtoes -18.4168
lfemur -20.5422 -6.79287 -18.7719
ltibia 5.97398
lfoot -5.60866 -0.0183525
ltoes -41.2949
1176
root 10.1753 16.4506 5.31348 22.354 -3.79849 1.13478
lowerback -25.2265 -1.16395 -4.44228
upperback -0.951657 -0.159242 -0.682553
thorax 13.1075 -0.324347 1.72062
lowerneck -6.15505 3.04056 2.8997
upperneck -4.92896 3.92772 1.65802
head -0.479845 1.91555 0.0869086
rclavicle 5.56597e-015 -1.98785e-014
rhumerus 2.23879 23.279 -46.0224
rradius 98.5603
rwrist -20.5433
rhand -6.75282 -53.1323
rfingers 7.12502
rthumb 19.1085 -82.2136
lclavicle 5.56597e-015 -1.98785e-014
lhumerus 7.09564 -29.1509 37.3915
lradius 90.5276
lwrist 8.08913
lhand -22.7555 -18.1448
lfingers 7.12502
lthumb 3.67923 11.8032
rfemur -21.5225 6.64121 15.5307
rtibia 5.74037
rfoot -14.342 -3.68266
rtoes -19.9102
lfemur -20.6772 -6.73973 -18.7244
ltibia 6.06947
lfoot -5.65116 0.175602
ltoes -41.0584
1177
root 10.1694 16.4524 5.30378 22.3136 -4.09144 1.22508
lowerback -25.4593 -1.18295 -4.67455
upperback -0.714786 -0.0855017 -0.750751
thorax 13.5108 -0.314242 1.79985
lowerneck -6.84935 3.03628 2.55985
upperneck -4.85384 3.92156 2.00187
head -0.360595 1.92307 0.256098
rclavicle -5.96354e-016 1.51076e-014
rhumerus 3.95399 24.1094 -46.7017
rradius 96.6642
rwrist -20.3679
rhand -6.66687 -52.9304
rfingers 7.12502
rthumb 19.1912 -82.0036
lclavicle -5.96354e-016 1.51076e-014
lhumerus 8.90219 -29.1626 38.1992
lradius 88.5684
lwrist 7.12019
lhand -23.0153 -18.5163
lfingers 7.12502
lthumb 3.4283 11.4359
rfemur -21.7406 7.08639 15.307
rtibia 5.94375
rfoot -14.2206 -3.97987
rtoes -19.2686
lfemur -20.6933 -6.59001 -18.7813
ltibia 6.07187
lfoot -5.6416 0.329502
ltoes -40.3273
1178
root 10.1786 16.4522 5.29136 22.1591 -3.87972 1.07638
lowerback -25.4049 -1.19035 -4.39057
upperback -0.749367 -0.17824 -0.782491
thorax 13.4444 -0.334653 1.56709
lowerneck -6.75585 3.1498 2.92936
upperneck -4.88942 4.05247 1.96982
head -0.378732 1.98139 0.188129
rclavicle -4.96962e-016 2.78299e-015
rhumerus 4.9643 25.3127 -47.5386
rradius 94.8162
rwrist -20.1787
rhand -6.89459 -52.594
rfingers 7.12502
rthumb 18.9722 -81.6888
lclavicle -4.96962e-016 2.78299e-015
lhumerus 10.1261 -29.7241 39.254
lradius 86.6608
lwrist 6.13758
lhand -23.1354 -18.8986
lfingers 7.12502
lthumb 3.31233 11.0554
rfemur -21.5311 6.49919 15.6625
rtibia 5.97536
rfoot -14.2381 -3.57364
rtoes -18.2966
lfemur -20.5411 -6.53863 -18.7197
ltibia 6.08026
lfoot -5.56516 0.104613
ltoes -40.4833
1179
root 10.18 16.453 5.27977 21.993 -3.93443 1.00221
lowerback -25.2266 -1.19513 -4.38943
upperback -0.79055 -0.198466 -0.769058
thorax 13.2986 -0.341181 1.57579
lowerneck -6.80834 3.22175 3.36817
upperneck -4.78017 4.10842 1.72287
head -0.323251 2.00436 0.0474729
rclavicle -4.47266e-015 2.26615e-014
rhumerus 6.10201 26.6664 -48.0601
rradius 93.0328
rwrist -20.3194
rhand -7.1099 -52.6961
rfingers 7.12502
rthumb 18.7651 -81.8109
lclavicle -4.47266e-015 2.26615e-014
lhumerus 11.2969 -30.2791 40.3472
lradius 84.6402
lwrist 5.38888
lhand -23.4151 -19.1703
lfingers 7.12502
lthumb 3.04228 10.7877
rfemur -21.3818 6.60664 15.7472
rtibia 5.92377
rfoot -14.3769 -3.63479
rtoes -20.5162
lfemur -20.3757 -6.47464 -18.6393
ltibia 6.03671
lfoot -5.5006 0.0883207
ltoes -40.8548
1180
root 10.1856 16.4525 5.27021 21.9435 -3.92948 1.05058
lowerback -25.0388 -1.24682 -4.46686
upperback -0.875384 -0.261794 -0.740449
thorax 13.0997 -0.371338 1.63203
lowerneck -6.72252 3.11376 3.23271
upperneck -4.71724 3.97694 1.79535
head -0.322613 1.94131 0.0875835
rclavicle -6.41081e-015 -9.54166e-015
rhumerus 7.064 27.9209 -48.6053
rradius 91.2028
rwrist -20.3722
rhand -7.01253 -53.0797
rfingers 7.12502
rthumb 18.8588 -82.1855
lclavicle -6.41081e-015 -9.54166e-015
lhumerus 12.0821 -30.8396 41.5705
lradius 82.856
lwrist 5.00526
lhand -23.5838 -19.095
lfingers 7.12502
lthumb 2.87934 10.8653
rfemur -21.3191 6.45342 15.6987
rtibia 5.87652
rfoot -14.253 -3.46768
rtoes -21.0263
lfemur -20.3219 -6.51721 -18.723
ltibia 5.98588
lfoot -5.45712 0.0720024
ltoes -40.0241
1181
root 10.1892 16.4528 5.2634 21.97 -3.92721 1.07488
lowerback -24.8839 -1.25047 -4.5171
upperback -1.31898 -0.275362 -0.748737
thorax 12.4981 -0.362893 1.65179
lowerneck -5.27947 3.02854 3.48369
upperneck -5.09864 3.9213 1.58876
head -0.658978 1.89467 -0.0436806
rclavicle -2.28602e-015 7.55382e-015
rhumerus 7.02936 29.4027 -49.6553
rradius 89.3325
rwrist -20.1988
rhand -6.79108 -53.4528
rfingers 7.12502
rthumb 19.0717 -82.5378
lclavicle -2.28602e-015 7.55382e-015
lhumerus 11.8604 -31.825 43.3421
lradius 81.3387
lwrist 4.771
lhand -23.1053 -19.0851
lfingers 7.12502
lthumb 3.34144 10.8685
rfemur -21.3833 6.41315 15.6414
rtibia 5.95283
rfoot -14.0519 -3.34019
rtoes -19.2262
lfemur -20.3627 -6.59505 -18.7569
ltibia 5.95894
lfoot -5.4079 0.182697
ltoes -39.5412
